<svg xmlns="http://www.w3.org/2000/svg" xmlns:xlink="http://www.w3.org/1999/xlink" width="500" zoomAndPan="magnify" viewBox="0 0 375 374.999991" height="500" preserveAspectRatio="xMidYMid meet" version="1.0"><defs><clipPath id="6c38c120af"><path d="M 28 45 L 350 45 L 350 301 L 28 301 Z M 28 45 " clip-rule="nonzero"/></clipPath><clipPath id="e628430eba"><path d="M 320.851562 16.308594 L 372.214844 263.019531 L 54.28125 329.210938 L 2.917969 82.5 Z M 320.851562 16.308594 " clip-rule="nonzero"/></clipPath><clipPath id="6b96d344ea"><path d="M 320.851562 16.308594 L 372.214844 263.019531 L 54.28125 329.210938 L 2.917969 82.5 Z M 320.851562 16.308594 " clip-rule="nonzero"/></clipPath><clipPath id="26b18ccd3e"><path d="M 133 93 L 324 93 L 324 366 L 133 366 Z M 133 93 " clip-rule="nonzero"/></clipPath><clipPath id="c39fac8303"><path d="M 207.921875 87.441406 L 328.242188 127.296875 L 246.171875 375.058594 L 125.851562 335.199219 Z M 207.921875 87.441406 " clip-rule="nonzero"/></clipPath><clipPath id="61926d1713"><path d="M 207.921875 87.441406 L 328.242188 127.296875 L 246.171875 375.058594 L 125.851562 335.199219 Z M 207.921875 87.441406 " clip-rule="nonzero"/></clipPath><clipPath id="4f7b094b2f"><path d="M 76 92 L 149 92 L 149 178 L 76 178 Z M 76 92 " clip-rule="nonzero"/></clipPath><clipPath id="29b0a65da8"><path d="M 68.25 113.070312 L 138.703125 87.355469 L 168.789062 169.785156 L 98.335938 195.5 Z M 68.25 113.070312 " clip-rule="nonzero"/></clipPath><clipPath id="676b68d82d"><path d="M 68.25 113.070312 L 138.703125 87.355469 L 168.789062 169.785156 L 98.335938 195.5 Z M 68.25 113.070312 " clip-rule="nonzero"/></clipPath><clipPath id="ce7dea71d7"><path d="M 68.25 113.070312 L 138.703125 87.355469 L 168.789062 169.785156 L 98.335938 195.5 Z M 68.25 113.070312 " clip-rule="nonzero"/></clipPath></defs><g clip-path="url(#6c38c120af)"><g clip-path="url(#e628430eba)"><g clip-path="url(#6b96d344ea)"><path fill="#f5efd7" d="M 345.5 136.910156 C 341.886719 123.402344 335.078125 110.960938 328.117188 98.75 C 316.34375 77.902344 301.789062 56.230469 279.132812 48.695312 C 262.121094 43.199219 243.558594 46.660156 226.324219 51.65625 C 209.085938 56.648438 191.933594 63.03125 174.082031 63.132812 C 160.042969 63.246094 146.59375 59.417969 132.628906 58.910156 C 119.476562 58.433594 106.34375 60.96875 93.609375 64.421875 C 82.753906 67.285156 71.71875 71.191406 62.980469 78.433594 C 54.976562 85.320312 49.304688 94.738281 44.867188 104.296875 C 35.3125 124.964844 29.933594 147.375 28.457031 170.179688 C 27.425781 186.460938 28.332031 203.34375 33.929688 218.648438 C 41.378906 238.992188 56.316406 255.765625 73.046875 269.554688 C 85.621094 279.789062 99.34375 288.785156 114.890625 293.984375 C 128.925781 298.691406 143.667969 300.042969 158.554688 300.15625 C 190.949219 300.441406 223.988281 294.164062 252.601562 279.171875 C 272.878906 268.523438 290.542969 254 308.207031 239.476562 C 324.144531 226.316406 339.933594 208.566406 343.085938 197.667969 C 350.230469 174.085938 352.554688 170.789062 345.5 136.910156 Z M 345.5 136.910156 " fill-opacity="1" fill-rule="nonzero"/></g></g></g><g clip-path="url(#26b18ccd3e)"><g clip-path="url(#c39fac8303)"><g clip-path="url(#61926d1713)"><path fill="#000000" d="M 218.136719 139.851562 C 220.835938 133.964844 223.898438 128.238281 226.855469 122.476562 C 228.246094 119.757812 229.648438 117.042969 230.929688 114.273438 C 232.535156 110.824219 234.304688 107.210938 234.980469 103.441406 C 235.261719 101.902344 236.308594 100.578125 238.027344 100.6875 C 239.449219 100.777344 241.050781 102.179688 240.78125 103.734375 C 239.496094 110.941406 235.816406 117.621094 232.519531 124.082031 C 229.546875 129.933594 226.398438 135.710938 223.660156 141.679688 C 223.015625 143.097656 221.617188 144.074219 219.992188 143.523438 C 218.613281 143.050781 217.484375 141.292969 218.136719 139.851562 Z M 241.601562 149.867188 C 248.582031 138.441406 254.359375 126.289062 258.789062 113.652344 C 260.027344 110.121094 254.515625 108.296875 253.28125 111.828125 C 249.003906 124 243.488281 135.636719 236.769531 146.648438 C 234.832031 149.839844 239.660156 153.066406 241.601562 149.867188 Z M 273.945312 118.6875 C 267.691406 129.929688 261.769531 141.492188 254.859375 152.339844 C 249.515625 160.722656 243.03125 169.59375 233.542969 173.503906 C 230.253906 174.859375 226.667969 175.546875 223.101562 175.398438 C 218.070312 175.171875 214.316406 171.605469 211.320312 167.8125 C 204.667969 159.386719 205.976562 146.816406 207.707031 136.925781 C 210.132812 123.121094 215.695312 109.933594 222.375 97.6875 C 224.148438 94.429688 219.339844 91.179688 217.546875 94.460938 C 210.898438 106.648438 205.328125 119.574219 202.558594 133.222656 C 200.351562 144.109375 198.496094 158.210938 204.597656 168.25 C 206.734375 171.769531 209.683594 175.300781 213.175781 177.804688 C 205.492188 195.085938 198.042969 212.496094 189.667969 229.453125 C 183.832031 226.964844 177.507812 226.851562 172.425781 231.285156 C 170.132812 233.285156 168.886719 235.859375 167.660156 238.539062 C 160.050781 255.191406 152.453125 271.847656 144.84375 288.5 C 141.6875 295.40625 138.546875 302.300781 135.390625 309.203125 C 134.15625 311.90625 133.125 314.570312 133.234375 317.648438 C 133.367188 321.308594 134.808594 324.949219 137.367188 327.605469 C 139.28125 329.585938 141.621094 330.726562 144.074219 331.851562 C 145.890625 332.683594 147.699219 333.5 149.515625 334.332031 C 156.675781 337.371094 165.285156 334.433594 168.863281 327.453125 C 169.597656 326.011719 170.246094 324.511719 170.910156 323.035156 C 174.355469 315.507812 177.792969 307.960938 181.238281 300.433594 C 188.496094 284.546875 195.792969 268.675781 203.003906 252.773438 C 204.808594 248.804688 205.171875 244.507812 203.5625 240.375 C 201.878906 236.066406 198.597656 233.746094 194.898438 231.867188 C 203.214844 214.972656 210.671875 197.671875 218.3125 180.472656 C 222.214844 181.695312 226.710938 181.324219 230.597656 180.503906 C 240.789062 178.375 248.351562 171.003906 254.484375 163.035156 C 259.136719 156.992188 262.925781 150.351562 266.632812 143.710938 C 270.6875 136.441406 274.726562 129.164062 278.777344 121.902344 C 280.585938 118.65625 275.761719 115.414062 273.945312 118.6875 Z M 319.574219 151.464844 C 316.65625 158.597656 313.128906 165.515625 309.847656 172.5 C 303.890625 185.1875 297.925781 197.875 291.972656 210.550781 C 287.082031 220.96875 281.804688 231.273438 277.292969 241.859375 C 273.433594 250.925781 269.695312 260.039062 265.894531 269.136719 C 266.207031 269.578125 266.507812 270.03125 266.757812 270.550781 C 268.601562 274.296875 268.234375 278.347656 266.554688 282.03125 C 259.289062 297.929688 252.023438 313.839844 244.773438 329.742188 C 241.21875 337.519531 237.667969 345.285156 234.125 353.066406 C 233.433594 354.578125 232.765625 356.09375 232.054688 357.585938 C 229.113281 363.839844 222.105469 366.992188 215.558594 364.269531 C 213.777344 363.460938 212.007812 362.644531 210.222656 361.835938 C 208.195312 360.90625 205.925781 360.085938 204.164062 358.671875 C 201.25 356.320312 199.503906 352.808594 199.425781 349.058594 C 199.375 346.351562 200.359375 344.109375 201.445312 341.738281 C 204.605469 334.820312 207.761719 327.917969 210.910156 321 C 218.667969 304.015625 226.417969 287.027344 234.175781 270.042969 C 234.960938 268.332031 235.675781 266.382812 236.773438 264.871094 C 238.988281 261.839844 242.417969 259.933594 246.15625 259.675781 C 246.796875 259.628906 247.414062 259.65625 248.019531 259.722656 C 249.769531 255.625 251.507812 251.527344 253.257812 247.433594 C 250.582031 246.277344 247.894531 245.113281 245.21875 243.96875 C 243.839844 243.375 242.777344 241.855469 243.375 240.300781 C 247.628906 229.261719 251.910156 218.234375 256.632812 207.378906 C 264.914062 188.367188 274.617188 169.742188 287.71875 153.566406 C 293.375 146.589844 299.578125 139.269531 307.714844 135.128906 C 310.984375 133.46875 316.582031 131.082031 320.273438 132.457031 C 322.453125 133.257812 323.011719 135.101562 322.578125 136.699219 C 322.625 136.796875 322.691406 136.886719 322.742188 136.984375 C 323.371094 138.359375 322.9375 139.792969 322.683594 141.21875 C 322.035156 144.738281 320.929688 148.152344 319.574219 151.464844 Z M 316.648438 141.921875 C 316.871094 141.003906 316.984375 140.050781 317.195312 139.125 C 317.175781 139.214844 317.738281 139.988281 317.320312 139.195312 C 317.09375 138.769531 316.816406 138.375 316.554688 137.976562 C 314.996094 138.289062 312.929688 139.15625 312.253906 139.433594 C 310.503906 140.160156 308.804688 141.0625 307.246094 142.125 C 303.90625 144.371094 300.972656 147.234375 298.257812 150.179688 C 274.9375 175.378906 262.035156 208.054688 249.839844 239.65625 C 252.550781 240.828125 255.261719 241.996094 257.960938 243.160156 C 259.304688 243.742188 260.460938 245.292969 259.800781 246.828125 C 257.726562 251.699219 255.65625 256.558594 253.582031 261.429688 C 253.617188 261.441406 253.640625 261.449219 253.675781 261.472656 C 256.191406 262.617188 258.921875 263.644531 261.328125 265.070312 C 262.917969 261.257812 264.515625 257.453125 266.105469 253.644531 C 272.703125 237.867188 280.003906 222.472656 287.28125 206.984375 C 293.171875 194.453125 299.070312 181.90625 304.960938 169.371094 C 307.777344 163.375 310.726562 157.421875 313.367188 151.339844 C 314.683594 148.269531 315.863281 145.152344 316.648438 141.921875 Z M 316.648438 141.921875 " fill-opacity="1" fill-rule="nonzero"/></g></g></g><g clip-path="url(#4f7b094b2f)"><g clip-path="url(#29b0a65da8)"><g clip-path="url(#676b68d82d)"><g clip-path="url(#ce7dea71d7)"><path fill="#000000" d="M 142.664062 99.21875 C 139.351562 92.816406 133.105469 89.421875 125.300781 95.175781 C 122.101562 97.523438 120.285156 100.8125 118.144531 103.96875 C 114.003906 110.027344 111.511719 117.046875 110.925781 124.339844 C 110.6875 127.058594 110.257812 129.75 109.859375 132.917969 C 108.777344 132.300781 108.191406 132.027344 107.683594 131.660156 C 102.5625 127.855469 96.734375 125.671875 90.496094 124.71875 C 87.625 124.289062 84.617188 124.371094 81.695312 124.5625 C 80.589844 124.644531 79.089844 125.421875 78.535156 126.316406 C 76.445312 129.683594 75.699219 133.484375 77.265625 137.203125 C 78.355469 139.804688 79.738281 142.390625 81.492188 144.585938 C 89.199219 154.136719 98.050781 162.253906 109.824219 166.742188 C 114.859375 168.664062 119.789062 170.855469 124.703125 173.074219 C 129.523438 175.234375 134.613281 176.789062 139.839844 177.699219 C 144.695312 178.554688 146.996094 177.046875 147.488281 172.230469 C 147.96875 167.511719 148.1875 162.773438 148.503906 158.042969 C 149.25 147.070312 148.574219 136.132812 147.425781 125.226562 C 146.777344 119.257812 145.921875 113.296875 144.945312 107.382812 C 144.457031 104.582031 143.925781 101.664062 142.664062 99.21875 Z M 142.664062 99.21875 " fill-opacity="1" fill-rule="nonzero"/></g></g></g></g></svg>